HIERARCHY
ROOT joint_Root
{
	OFFSET 0.0 0.0 0.0
	CHANNELS 6 Xposition Yposition Zposition Zrotation Xrotation Yrotation 
	JOINT Hips
	{
		OFFSET 4.5925 91.4895 -427.239
		CHANNELS 6 Xposition Yposition Zposition Zrotation Xrotation Yrotation 
		JOINT Spine
		{
			OFFSET 15.7357 0.0 0.0
			CHANNELS 6 Xposition Yposition Zposition Zrotation Xrotation Yrotation 
			JOINT Chest
			{
				OFFSET 8.98455 -0.406207 0.0
				CHANNELS 6 Xposition Yposition Zposition Zrotation Xrotation Yrotation 
				JOINT Neck
				{
					OFFSET 16.3773 0.0 0.0
					CHANNELS 6 Xposition Yposition Zposition Zrotation Xrotation Yrotation 
					JOINT Head
					{
						OFFSET 6.45672 0.0 0.0
						CHANNELS 6 Xposition Yposition Zposition Zrotation Xrotation Yrotation 
						End Site
						{
							OFFSET 0.0 0.0 0.0
						}
					}
				}
				JOINT Shoulder_L
				{
					OFFSET 12.9942 -0.242716 4.98039
					CHANNELS 6 Xposition Yposition Zposition Zrotation Xrotation Yrotation 
					JOINT UpperArm_L
					{
						OFFSET 5.34809 0.0 0.0
						CHANNELS 6 Xposition Yposition Zposition Zrotation Xrotation Yrotation 
						JOINT LowerArm_L
						{
							OFFSET 24.3286 1.87007e-05 0.0
							CHANNELS 6 Xposition Yposition Zposition Zrotation Xrotation Yrotation 
							JOINT Hand_L
							{
								OFFSET 22.2916 0.0 0.0
								CHANNELS 6 Xposition Yposition Zposition Zrotation Xrotation Yrotation 
								End Site
								{
									OFFSET 0.0 0.0 0.0
								}
							}
						}
					}
				}
				JOINT Shoulder_R
				{
					OFFSET 12.9945 -0.242716 -4.98039
					CHANNELS 6 Xposition Yposition Zposition Zrotation Xrotation Yrotation 
					JOINT UpperArm_R
					{
						OFFSET -5.34813 0.0 0.0
						CHANNELS 6 Xposition Yposition Zposition Zrotation Xrotation Yrotation 
						JOINT LowerArm_R
						{
							OFFSET -24.3289 0.000322201 0.0
							CHANNELS 6 Xposition Yposition Zposition Zrotation Xrotation Yrotation 
							JOINT Hand_R
							{
								OFFSET -22.2915 -0.000108084 0.0
								CHANNELS 6 Xposition Yposition Zposition Zrotation Xrotation Yrotation 
								End Site
								{
									OFFSET 0.0 0.0 0.0
								}
							}
						}
					}
				}
			}
		}
		JOINT UpperLeg_L
		{
			OFFSET -2.19248 -6.46944 0.0
			CHANNELS 6 Xposition Yposition Zposition Zrotation Xrotation Yrotation 
			JOINT LowerLeg_L
			{
				OFFSET 39.0811 0.0 -1.23785e-05
				CHANNELS 6 Xposition Yposition Zposition Zrotation Xrotation Yrotation 
				JOINT Foot_L
				{
					OFFSET 40.9854 0.0 -1.26872e-05
					CHANNELS 6 Xposition Yposition Zposition Zrotation Xrotation Yrotation 
					JOINT Toes_L
					{
						OFFSET 11.7543 0.0 0.0
						CHANNELS 6 Xposition Yposition Zposition Zrotation Xrotation Yrotation 
						End Site
						{
							OFFSET 0.0 0.0 0.0
						}
					}
				}
			}
		}
		JOINT UpperLeg_R
		{
			OFFSET -2.19251 6.46944 0.0
			CHANNELS 6 Xposition Yposition Zposition Zrotation Xrotation Yrotation 
			JOINT LowerLeg_R
			{
				OFFSET -39.0811 -0.00228153 -0.0401928
				CHANNELS 6 Xposition Yposition Zposition Zrotation Xrotation Yrotation 
				JOINT Foot_R
				{
					OFFSET -40.9854 0.0 0.0
					CHANNELS 6 Xposition Yposition Zposition Zrotation Xrotation Yrotation 
					JOINT Toes_R
					{
						OFFSET -11.7543 0.0 0.0
						CHANNELS 6 Xposition Yposition Zposition Zrotation Xrotation Yrotation 
						End Site
						{
							OFFSET 0.0 0.0 0.0
						}
					}
				}
			}
		}
	}
}
MOTION
Frames:	4
Frame Time:	0.0333333
0.000000 0.000000 0.000000 0.000000 0.000000 -0.000000 -0.033721 83.717300 53.891400 -85.765500 -3.200470 -177.023000 15.735700 0.000005 -0.000001 71.779100 82.492000 -68.806000 8.984550 -0.406207 -0.000000 6.643650 -4.709680 6.215960 16.377300 -0.000001 -0.000001 -2.083950 -1.404960 -0.288422 6.456720 -0.000001 -0.000000 -1.886670 0.658195 -0.250081 12.994200 -0.242716 4.980390 -90.579200 2.162420 -75.000900 5.348090 -0.000007 -0.000001 -70.318600 32.141000 -6.172890 24.328600 0.000019 0.000005 10.021000 6.492800 -57.394100 22.291600 -0.000001 0.000005 4.768130 5.484020 -5.913840 12.994500 -0.242716 -4.980390 86.972900 13.125400 -76.891200 -5.348130 -0.000001 -0.000004 -55.832700 33.559000 -5.810390 -24.328900 0.000322 -0.000009 -5.097600 -0.279483 -86.874200 -22.291500 -0.000108 -0.000004 27.334200 5.600700 -11.385800 -2.192480 -6.469440 -0.000000 -168.624000 -3.441070 -3.907950 39.081100 -0.000007 -0.000012 0.109092 -0.037948 70.816600 40.985400 -0.000006 -0.000013 2.442890 -0.062825 -32.025700 11.754300 -0.000000 0.000003 -0.012490 -0.121402 -21.526600 -2.192510 6.469440 -0.000001 -171.367000 17.128000 152.270000 -39.081100 -0.002282 -0.040193 -0.554427 0.368227 56.563300 -40.985400 0.000008 0.000006 7.649450 -1.309180 -77.729100 -11.754300 -0.000006 -0.000006 -0.000358 -0.005816 -16.810000
0.000000 0.000000 0.000000 0.000000 0.000000 -0.000000 -0.125058 84.929700 49.620700 -86.479700 -1.033200 -176.765000 15.735700 0.000005 -0.000001 82.116900 82.737700 -79.488600 8.984550 -0.406207 -0.000000 6.676200 -2.010680 5.368670 16.377300 -0.000001 -0.000001 -1.677090 -1.639500 0.930395 6.456720 -0.000001 -0.000000 -0.407452 -0.219180 -0.544123 12.994200 -0.242716 4.980390 -90.773000 2.811230 -74.618600 5.348090 -0.000007 -0.000001 -66.416800 36.947800 2.948220 24.328600 0.000019 0.000005 14.205900 9.825410 -56.018200 22.291600 -0.000001 0.000005 -0.003052 5.538450 -8.172760 12.994500 -0.242716 -4.980390 88.070300 11.133400 -80.102400 -5.348130 -0.000001 -0.000004 -55.750300 32.506500 -18.643100 -24.328900 0.000322 -0.000009 -3.411860 0.297973 -94.974000 -22.291500 -0.000108 -0.000004 26.106000 5.608880 -11.888100 -2.192480 -6.469440 -0.000000 -172.219000 -2.523140 -11.831300 39.081100 -0.000007 -0.000012 -0.038859 0.006659 80.287100 40.985400 -0.000006 -0.000013 7.538110 -3.897780 -39.418000 11.754300 -0.000000 0.000003 -0.011111 -0.111768 -21.132000 -2.192510 6.469440 -0.000001 -173.171000 17.752400 158.132000 -39.081100 -0.002282 -0.040193 -0.323866 0.245902 53.065900 -40.985400 0.000008 0.000006 9.369770 0.959234 -79.646700 -11.754300 -0.000006 -0.000006 -0.000320 -0.005220 -16.785800
0.000000 0.000000 0.000000 0.000000 0.000000 -0.000000 -0.357590 86.968100 45.380700 -87.454300 1.650690 -176.989000 15.735700 0.000005 -0.000001 96.481500 82.925400 -94.508400 8.984550 -0.406207 -0.000000 6.270530 1.566910 3.856060 16.377300 -0.000001 -0.000001 -0.911724 -2.179030 2.021060 6.456720 -0.000001 -0.000000 -0.183145 -2.288260 0.848258 12.994200 -0.242716 4.980390 -90.608300 1.937790 -72.567800 5.348090 -0.000007 -0.000001 -64.202200 44.755100 12.604200 24.328600 0.000019 0.000005 7.331690 4.058570 -61.190600 22.291600 -0.000001 0.000005 -1.329470 5.533640 -7.956010 12.994500 -0.242716 -4.980390 88.675100 8.195320 -80.784700 -5.348130 -0.000001 -0.000004 -54.410600 31.971700 -29.883100 -24.328900 0.000322 -0.000009 -6.295040 1.393560 -102.428000 -22.291500 -0.000108 -0.000004 26.003500 5.616560 -12.386900 -2.192480 -6.469440 -0.000000 -175.563000 -2.255620 -19.224000 39.081100 -0.000007 -0.000012 -0.120697 0.012109 84.274800 40.985400 -0.000006 -0.000013 9.468650 -5.841150 -44.323500 11.754300 -0.000000 0.000003 -0.009636 -0.100904 -20.687600 -2.192510 6.469440 -0.000001 -175.223000 17.436900 165.102000 -39.081100 -0.002282 -0.040193 0.080270 -0.074780 45.841000 -40.985400 0.000008 0.000006 11.890600 2.918530 -79.705200 -11.754300 -0.000006 -0.000006 -0.000587 -0.009355 -16.953800
0.000000 0.000000 0.000000 0.000000 0.000000 -0.000000 -0.800348 89.412300 41.148000 -88.820700 3.280600 -177.645000 15.735700 0.000005 -0.000001 109.290000 82.852900 -108.138000 8.984550 -0.406207 -0.000000 5.694510 4.689520 2.068790 16.377300 -0.000001 -0.000001 -0.124300 -2.843020 2.635450 6.456720 -0.000001 -0.000000 -0.071349 -4.845020 2.241920 12.994200 -0.242716 4.980390 -89.804000 -0.554044 -70.525400 5.348090 -0.000007 -0.000001 -64.883200 48.442900 21.040500 24.328600 0.000019 0.000005 4.331260 1.822040 -67.226100 22.291600 -0.000001 0.000005 -3.352260 5.531860 -7.877190 12.994500 -0.242716 -4.980390 89.185400 5.167410 -81.028800 -5.348130 -0.000001 -0.000004 -53.672300 29.916500 -36.764300 -24.328900 0.000322 -0.000009 -8.615180 3.082190 -109.539000 -22.291500 -0.000108 -0.000004 23.977800 5.613740 -12.199100 -2.192480 -6.469440 -0.000000 -178.719000 -1.142390 -25.386200 39.081100 -0.000007 -0.000012 -0.143052 0.018132 82.779400 40.985400 -0.000006 -0.000013 8.978030 -7.007960 -48.761800 11.754300 -0.000000 0.000003 -0.010816 -0.109645 -21.045100 -2.192510 6.469440 -0.000001 -178.170000 17.054500 171.808000 -39.081100 -0.002282 -0.040193 0.058503 -0.073639 36.863700 -40.985400 0.000008 0.000006 10.700000 5.838670 -75.391300 -11.754300 -0.000006 -0.000006 -0.703724 -0.852677 -18.696700
